# xmcd
#
# Track frame offsets:
#	150
#	18579
#	33750
#	53959
#	66634
#	90358
#	107053
#	125677
#	140099
#	155804
#
# Disc length: 2324 seconds
#
# Revision: 1
# Processed by: cddbd v1.5.2PL0 Copyright (c) Steve Scherf et al.
# Submitted via: audiograbber 1.83.01
#
DISCID=8f09120a
DTITLE=Sonia Leigh - Run or Surrender
DYEAR=2007
DGENRE=Country
TTITLE0=Frozen Bed
TTITLE1=I Love You
TTITLE2=A Poem from the Ocean Floor
TTITLE3=Dawning of Fall
TTITLE4=Meeting of the Minds
TTITLE5=Ribbon of Red
TTITLE6=Fading Away
TTITLE7=Black Rubber Bands
TTITLE8=Lions Den
TTITLE9=Tables Turn
EXTD=
EXTT0=
EXTT1=
EXTT2=
EXTT3=
EXTT4=
EXTT5=
EXTT6=
EXTT7=
EXTT8=
EXTT9=
PLAYORDER=
